<svg width="49" height="48" viewBox="0 0 49 48" fill="none" xmlns="http://www.w3.org/2000/svg">
<path d="M24.5223 21.5102C31.0709 21.5419 41.3456 20.6197 41.3456 20.6197L41.3457 0.922668L7.64925 0.922668L7.64924 20.2672C7.64924 20.2672 16.2616 21.4703 24.5223 21.5102ZM24.5223 21.5102L24.5223 24.9081" stroke="white" stroke-width="1.5" stroke-linecap="round"/>
<circle cx="24.4968" cy="26.1517" r="1.16286" stroke="white" stroke-width="1.5"/>
<path d="M4.51161 40.5616C4.51161 37.9026 3.1893 34.4114 9.30788 33.327C13.0002 32.6727 14.2791 34.0441 14.1975 38.1036" stroke="white" stroke-width="1.5"/>
<path d="M44.4825 40.5616C44.4825 37.9026 45.8048 34.4114 39.6863 33.327C35.9939 32.6727 34.7151 34.0441 34.7966 38.1036" stroke="white" stroke-width="1.5"/>
<path d="M19.2786 37.6381C19.2786 34.0288 19.2786 31.5762 24.6437 31.5762C29.7148 31.5762 29.7146 34.3244 29.7148 37.6381" stroke="white" stroke-width="1.5"/>
<path d="M2.70429 46.5805C1.52232 45.7965 0.869141 44.9354 0.869141 44.0317C0.869141 40.395 11.448 37.4468 24.4978 37.4468C37.5475 37.4468 48.1264 40.395 48.1264 44.0317C48.1264 44.9354 47.4733 45.7965 46.2913 46.5805" stroke="white" stroke-width="1.5" stroke-linecap="round"/>
</svg>
