<svg width="49" height="48" xmlns="http://www.w3.org/2000/svg" fill="none">

 <g>
  <title>Layer 1</title>
  <path id="svg_1" stroke-linecap="round" stroke-width="1.5" stroke="#ff7f00" d="m24.5223,21.5102c6.5486,0.0317 16.8233,-0.8905 16.8233,-0.8905l0.0001,-19.69703l-33.69645,0l-0.00001,19.34453c0,0 8.61236,1.2031 16.87306,1.243zm0,0l0,3.3979"/>
  <circle id="svg_2" stroke-width="1.5" stroke="#ff7f00" r="1.16286" cy="26.1517" cx="24.4968"/>
  <path id="svg_3" stroke-width="1.5" stroke="#ff7f00" d="m4.51161,40.5616c0,-2.659 -1.32231,-6.1502 4.79627,-7.2346c3.69232,-0.6543 4.97122,0.7171 4.88962,4.7766"/>
  <path id="svg_4" stroke-width="1.5" stroke="#ff7f00" d="m44.4825,40.5616c0,-2.659 1.3223,-6.1502 -4.7962,-7.2346c-3.6924,-0.6543 -4.9712,0.7171 -4.8897,4.7766"/>
  <path id="svg_5" stroke-width="1.5" stroke="#ff7f00" d="m19.2786,37.6381c0,-3.6093 0,-6.0619 5.3651,-6.0619c5.0711,0 5.0709,2.7482 5.0711,6.0619"/>
  <path id="svg_6" stroke-linecap="round" stroke-width="1.5" stroke="#ff7f00" d="m2.70429,46.5805c-1.18197,-0.784 -1.83515,-1.6451 -1.83515,-2.5488c0,-3.6367 10.57886,-6.5849 23.62866,-6.5849c13.0497,0 23.6286,2.9482 23.6286,6.5849c0,0.9037 -0.6531,1.7648 -1.8351,2.5488"/>
 </g>
</svg>